<svg xmlns="http://www.w3.org/2000/svg" viewBox="0 0 512 512" role="img" aria-label="Qard">
<rect width="512" height="512" fill="#0e1a24"/>
<g fill="none" stroke="#1e2c38" stroke-width="2">
<path d="M0 0V512"/><path d="M0 0H512"/><path d="M74 0V512"/><path d="M0 74H512"/><path d="M146 0V512"/><path d="M0 146H512"/><path d="M220 0V512"/><path d="M0 220H512"/><path d="M292 0V512"/><path d="M0 292H512"/><path d="M366 0V512"/><path d="M0 366H512"/><path d="M438 0V512"/><path d="M0 438H512"/><path d="M512 0V512"/><path d="M0 512H512"/>
</g>
<rect x="15" y="15" width="482" height="482" fill="none" stroke="#788c98" stroke-width="6"/>
<g transform="translate(139.7 328.6) scale(0.3644 -0.3644)">
<path d="M430 -124 331 -12H319Q186 -12 110.0 75.0Q34 162 34 343Q34 525 110.0 611.5Q186 698 319 698Q452 698 528.0 611.5Q604 525 604 343Q604 214 565.0 133.5Q526 53 455 17L587 -124ZM319 98Q396 98 434.0 156.5Q472 215 472 318V368Q472 471 434.0 529.5Q396 588 319 588Q243 588 204.5 529.5Q166 471 166 368V318Q166 215 204.5 156.5Q243 98 319 98Z" fill="#fbfcfd"/>
</g>
<rect x="195.8" y="407.8" width="120.5" height="30" fill="#b3341c"/>
</svg>
